<svg width="264" height="72" viewBox="0 0 264 72" fill="none" xmlns="http://www.w3.org/2000/svg">
<g clip-path="url(#clip0_14_114)">
<g filter="url(#filter0_d_14_114)">
<path d="M3.12 46V13.984H10.896L25.872 33.568L22.944 39.904V13.984H31.68V46H24.96L9.936 27.232L11.856 22.864V46H3.12ZM45.5813 46V13.984H55.2293V46H45.5813ZM75.2479 46V21.184H67.2319V13.984H93.0559V21.184H84.8479V46H75.2479Z" fill="#313131"/>
</g>
<g filter="url(#filter1_d_14_114)">
<path d="M112.32 46.72C110.592 46.72 109.104 46.528 107.856 46.144C106.608 45.76 105.472 45.376 104.448 44.992V38.176C105.024 38.592 105.728 39.04 106.56 39.52C107.424 39.968 108.368 40.352 109.392 40.672C110.448 40.992 111.568 41.152 112.752 41.152C113.776 41.152 114.464 40.992 114.816 40.672C115.168 40.32 115.344 39.92 115.344 39.472C115.344 39.024 115.104 38.656 114.624 38.368C114.144 38.048 113.52 37.776 112.752 37.552C111.984 37.328 111.168 37.136 110.304 36.976C109.568 36.848 108.832 36.624 108.096 36.304C107.392 35.952 106.736 35.488 106.128 34.912C105.552 34.304 105.088 33.568 104.736 32.704C104.416 31.808 104.256 30.768 104.256 29.584C104.256 27.952 104.56 26.608 105.168 25.552C105.808 24.464 106.64 23.6 107.664 22.96C108.72 22.288 109.84 21.808 111.024 21.52C112.208 21.232 113.36 21.104 114.48 21.136C116.592 21.2 118.24 21.424 119.424 21.808C120.608 22.192 121.664 22.688 122.592 23.296L122.64 29.296C121.584 28.72 120.496 28.16 119.376 27.616C118.288 27.072 117.04 26.8 115.632 26.8C114.448 26.8 113.632 26.976 113.184 27.328C112.736 27.68 112.512 28.128 112.512 28.672C112.512 29.216 112.672 29.648 112.992 29.968C113.344 30.256 113.792 30.496 114.336 30.688C114.912 30.848 115.52 31.024 116.16 31.216C116.96 31.408 117.792 31.632 118.656 31.888C119.52 32.144 120.32 32.528 121.056 33.04C121.792 33.552 122.384 34.256 122.832 35.152C123.312 36.048 123.552 37.232 123.552 38.704C123.52 40.72 122.976 42.32 121.92 43.504C120.896 44.656 119.536 45.488 117.84 46C116.144 46.48 114.304 46.72 112.32 46.72ZM134.271 55.408C133.407 55.408 132.543 55.328 131.679 55.168C130.847 55.008 130.111 54.784 129.471 54.496V48.112C130.079 48.304 130.607 48.448 131.055 48.544C131.535 48.64 132.015 48.688 132.495 48.688C133.231 48.688 133.887 48.512 134.463 48.16C135.039 47.84 135.519 47.264 135.903 46.432C136.287 45.6 136.559 44.4 136.719 42.832L136.911 47.44L126.447 21.664H135.519L140.559 37.984H139.839L144.783 21.664H153.327L143.967 45.952C143.071 48.256 142.111 50.096 141.087 51.472C140.063 52.88 138.975 53.888 137.823 54.496C136.671 55.104 135.487 55.408 134.271 55.408ZM156.258 23.728C156.834 23.408 157.634 23.088 158.658 22.768C159.682 22.448 160.818 22.16 162.066 21.904C163.314 21.616 164.578 21.392 165.858 21.232C167.138 21.04 168.306 20.944 169.362 20.944C171.506 20.944 173.362 21.2 174.93 21.712C176.498 22.224 177.698 23.104 178.53 24.352C179.394 25.6 179.826 27.312 179.826 29.488V46H171.906V31.312C171.906 30.672 171.81 30.112 171.618 29.632C171.458 29.12 171.202 28.704 170.85 28.384C170.53 28.064 170.082 27.824 169.506 27.664C168.962 27.504 168.306 27.424 167.538 27.424C166.866 27.424 166.194 27.52 165.522 27.712C164.882 27.872 164.434 28.048 164.178 28.24V46H156.258V23.728ZM197.547 46.672C195.723 46.672 194.027 46.4 192.459 45.856C190.891 45.28 189.499 44.464 188.283 43.408C187.099 42.352 186.171 41.056 185.499 39.52C184.827 37.984 184.491 36.224 184.491 34.24C184.491 32.096 184.795 30.192 185.403 28.528C186.011 26.864 186.891 25.472 188.043 24.352C189.195 23.232 190.555 22.384 192.123 21.808C193.723 21.232 195.499 20.944 197.451 20.944C198.827 20.944 200.219 21.088 201.627 21.376C203.067 21.632 204.299 22.016 205.323 22.528V29.248C204.203 28.704 203.115 28.256 202.059 27.904C201.003 27.552 199.915 27.376 198.795 27.376C196.939 27.376 195.403 27.84 194.187 28.768C192.971 29.664 192.363 31.152 192.363 33.232C192.363 35.472 192.875 37.184 193.899 38.368C194.955 39.52 196.715 40.096 199.179 40.096C200.363 40.096 201.499 39.872 202.587 39.424C203.707 38.976 204.651 38.528 205.419 38.08V44.704C204.299 45.344 203.115 45.824 201.867 46.144C200.651 46.496 199.211 46.672 197.547 46.672Z" fill="url(#paint0_linear_14_114)"/>
</g>
<g filter="url(#filter2_d_14_114)">
<path d="M233.113 20.8144L229.045 16.7599H256.06V32.4386H262.353V10.4884H229.045L233.113 6.43394L228.664 2L217 13.6242L228.664 25.2484L233.113 20.8144Z" fill="url(#paint1_linear_14_114)"/>
<path d="M251.992 39.6289L247.542 44.0628L251.611 48.1173H224.595V32.4386H218.303V54.3888H251.611L247.542 58.4433L251.992 62.8772L263.655 51.2531L251.992 39.6289Z" fill="url(#paint2_linear_14_114)"/>
</g>
</g>
<defs>
<filter id="filter0_d_14_114" x="-0.880005" y="13.984" width="97.9359" height="40.016" filterUnits="userSpaceOnUse" color-interpolation-filters="sRGB">
<feFlood flood-opacity="0" result="BackgroundImageFix"/>
<feColorMatrix in="SourceAlpha" type="matrix" values="0 0 0 0 0 0 0 0 0 0 0 0 0 0 0 0 0 0 127 0" result="hardAlpha"/>
<feOffset dy="4"/>
<feGaussianBlur stdDeviation="2"/>
<feComposite in2="hardAlpha" operator="out"/>
<feColorMatrix type="matrix" values="0 0 0 0 0 0 0 0 0 0 0 0 0 0 0 0 0 0 0.25 0"/>
<feBlend mode="normal" in2="BackgroundImageFix" result="effect1_dropShadow_14_114"/>
<feBlend mode="normal" in="SourceGraphic" in2="effect1_dropShadow_14_114" result="shape"/>
</filter>
<filter id="filter1_d_14_114" x="92.256" y="12.944" width="125.163" height="58.464" filterUnits="userSpaceOnUse" color-interpolation-filters="sRGB">
<feFlood flood-opacity="0" result="BackgroundImageFix"/>
<feColorMatrix in="SourceAlpha" type="matrix" values="0 0 0 0 0 0 0 0 0 0 0 0 0 0 0 0 0 0 127 0" result="hardAlpha"/>
<feMorphology radius="8" operator="dilate" in="SourceAlpha" result="effect1_dropShadow_14_114"/>
<feOffset dy="4"/>
<feGaussianBlur stdDeviation="2"/>
<feComposite in2="hardAlpha" operator="out"/>
<feColorMatrix type="matrix" values="0 0 0 0 0 0 0 0 0 0 0 0 0 0 0 0 0 0 0.25 0"/>
<feBlend mode="normal" in2="BackgroundImageFix" result="effect1_dropShadow_14_114"/>
<feBlend mode="normal" in="SourceGraphic" in2="effect1_dropShadow_14_114" result="shape"/>
</filter>
<filter id="filter2_d_14_114" x="213" y="2" width="54.6554" height="68.8773" filterUnits="userSpaceOnUse" color-interpolation-filters="sRGB">
<feFlood flood-opacity="0" result="BackgroundImageFix"/>
<feColorMatrix in="SourceAlpha" type="matrix" values="0 0 0 0 0 0 0 0 0 0 0 0 0 0 0 0 0 0 127 0" result="hardAlpha"/>
<feOffset dy="4"/>
<feGaussianBlur stdDeviation="2"/>
<feComposite in2="hardAlpha" operator="out"/>
<feColorMatrix type="matrix" values="0 0 0 0 0 0 0 0 0 0 0 0 0 0 0 0 0 0 0.25 0"/>
<feBlend mode="normal" in2="BackgroundImageFix" result="effect1_dropShadow_14_114"/>
<feBlend mode="normal" in="SourceGraphic" in2="effect1_dropShadow_14_114" result="shape"/>
</filter>
<linearGradient id="paint0_linear_14_114" x1="102" y1="46" x2="194" y2="46" gradientUnits="userSpaceOnUse">
<stop stop-color="#37E742"/>
<stop offset="1" stop-color="#00FF11"/>
</linearGradient>
<linearGradient id="paint1_linear_14_114" x1="266.576" y1="15" x2="212.638" y2="14.0553" gradientUnits="userSpaceOnUse">
<stop offset="0.9999" stop-color="#00FA11"/>
<stop offset="1" stop-color="#0F9918"/>
</linearGradient>
<linearGradient id="paint2_linear_14_114" x1="267.879" y1="45.4386" x2="213.94" y2="44.4939" gradientUnits="userSpaceOnUse">
<stop offset="0.9999" stop-color="#00FA11"/>
<stop offset="1" stop-color="#0F9918"/>
</linearGradient>
<clipPath id="clip0_14_114">
<rect width="264" height="72" fill="white"/>
</clipPath>
</defs>
</svg>
